#tb 0: 1/25
0,          0,          0,        1,   152064, 0x4040d2fc
0,          1,          1,        1,   152064, 0x0d8f9897
0,          2,          2,        1,   152064, 0xc23321cd
0,          3,          3,        1,   152064, 0x3c9225eb
0,          4,          4,        1,   152064, 0x8927006f
0,          5,          5,        1,   152064, 0xf706a302
0,          6,          6,        1,   152064, 0x8219c106
0,          7,          7,        1,   152064, 0x06c990ea
0,          8,          8,        1,   152064, 0x3a0f1135
0,          9,          9,        1,   152064, 0x4cff21d3
0,         10,         10,        1,   152064, 0x6be0e050
0,         11,         11,        1,   152064, 0x718b6c7b
0,         12,         12,        1,   152064, 0x24b38713
0,         13,         13,        1,   152064, 0x500553fb
0,         14,         14,        1,   152064, 0x531ae610
0,         15,         15,        1,   152064, 0x46f4ff1b
0,         16,         16,        1,   152064, 0xe5abe5ff
0,         17,         17,        1,   152064, 0x97daa351
0,         18,         18,        1,   152064, 0xfbef0a8f
0,         19,         19,        1,   152064, 0xbe76134f
0,         20,         20,        1,   152064, 0xa4bf10ea
0,         21,         21,        1,   152064, 0xb2fb32af
0,         22,         22,        1,   152064, 0xd33027a5
0,         23,         23,        1,   152064, 0x78e20c2b
0,         24,         24,        1,   152064, 0xefda2d6f
0,         25,         25,        1,   152064, 0xb99126f0
0,         26,         26,        1,   152064, 0x89d7e465
0,         27,         27,        1,   152064, 0x6150ff97
0,         28,         28,        1,   152064, 0xde03d937
0,         29,         29,        1,   152064, 0xd90ca874
0,         30,         30,        1,   152064, 0xb120b294
0,         31,         31,        1,   152064, 0x644eade4
0,         32,         32,        1,   152064, 0xd1bb004f
0,         33,         33,        1,   152064, 0x99806a8b
0,         34,         34,        1,   152064, 0x8c6b635f
0,         35,         35,        1,   152064, 0xa269fa8b
0,         36,         36,        1,   152064, 0xc11c0e64
0,         37,         37,        1,   152064, 0xac13f5eb
0,         38,         38,        1,   152064, 0x895799cf
0,         39,         39,        1,   152064, 0x95a9bea1
0,         40,         40,        1,   152064, 0xe998dfba
0,         41,         41,        1,   152064, 0xc72d8460
0,         42,         42,        1,   152064, 0xd1cb9b9a
0,         43,         43,        1,   152064, 0xb49aadd3
0,         44,         44,        1,   152064, 0x8bc38547
0,         45,         45,        1,   152064, 0x3485984b
0,         46,         46,        1,   152064, 0xdf305c0a
0,         47,         47,        1,   152064, 0x6a1ec990
0,         48,         48,        1,   152064, 0x595e0de4
0,         49,         49,        1,   152064, 0xe1baf7c4
0,         50,         50,        1,   152064, 0xf08b9b47
0,         51,         51,        1,   152064, 0x6532ba6f
0,         52,         52,        1,   152064, 0x3de67da6
0,         53,         53,        1,   152064, 0x439ffd04
0,         54,         54,        1,   152064, 0x6e6c1e97
0,         55,         55,        1,   152064, 0x8e5aee7a
0,         56,         56,        1,   152064, 0xd634999a
0,         57,         57,        1,   152064, 0xadfa9e8b
0,         58,         58,        1,   152064, 0x1b9090f5
0,         59,         59,        1,   152064, 0x29094dfc
0,         60,         60,        1,   152064, 0x56748851
0,         61,         61,        1,   152064, 0x2316719d
0,         62,         62,        1,   152064, 0x2ee0060b
0,         63,         63,        1,   152064, 0x3edb36d4
0,         64,         64,        1,   152064, 0x9ef437a3
0,         65,         65,        1,   152064, 0x8d9af72e
0,         66,         66,        1,   152064, 0xab86389c
0,         67,         67,        1,   152064, 0xd3b34576
0,         68,         68,        1,   152064, 0x9e5b04f4
0,         69,         69,        1,   152064, 0x6a164c17
0,         70,         70,        1,   152064, 0xcecf20ab
0,         71,         71,        1,   152064, 0x07c8e273
0,         72,         72,        1,   152064, 0x9b46fe6a
0,         73,         73,        1,   152064, 0xc1e8002b
0,         74,         74,        1,   152064, 0xdebdbe53
0,         75,         75,        1,   152064, 0x0d2dfd99
0,         76,         76,        1,   152064, 0xe8ae925f
0,         77,         77,        1,   152064, 0xe1fe6272
0,         78,         78,        1,   152064, 0xbb74d5e6
0,         79,         79,        1,   152064, 0xc7b5d949
0,         80,         80,        1,   152064, 0x9b15b020
0,         81,         81,        1,   152064, 0xc8201f44
0,         82,         82,        1,   152064, 0x30d03303
0,         83,         83,        1,   152064, 0x9f66fbc2
0,         84,         84,        1,   152064, 0x482b71ec
0,         85,         85,        1,   152064, 0x1c9e50bf
0,         86,         86,        1,   152064, 0x89f247e4
0,         87,         87,        1,   152064, 0xaa5f9141
0,         88,         88,        1,   152064, 0xb816aa8c
0,         89,         89,        1,   152064, 0x3112a619
